<?xml version="1.0" encoding="UTF-8"?>
<!DOCTYPE svg PUBLIC "-//W3C//DTD SVG 1.1//EN" "http://www.w3.org/Graphics/SVG/1.1/DTD/svg11.dtd">
<!-- Creator: CorelDRAW 2021 (64-Bit) -->
<svg xmlns="http://www.w3.org/2000/svg" xml:space="preserve" width="250px" height="250px" version="1.1" style="shape-rendering:geometricPrecision; text-rendering:geometricPrecision; image-rendering:optimizeQuality; fill-rule:evenodd; clip-rule:evenodd"
viewBox="0 0 250 250"
 xmlns:xlink="http://www.w3.org/1999/xlink"
 xmlns:xodm="http://www.corel.com/coreldraw/odm/2003">
 <defs>
  <style type="text/css">
   <![CDATA[
    .fil3 {fill:#3C3B6D}
    .fil2 {fill:#B12234}
    .fil0 {fill:#B22234}
    .fil1 {fill:#FDFDFD}
   ]]>
  </style>
 </defs>
 <g id="Capa_x0020_1">
  <metadata id="CorelCorpID_0Corel-Layer"/>
  <g id="_1297319316432">
   <path class="fil0" d="M212.3 136c-5.85,44.91 -46.39,82.84 -98.72,76.23 -44.38,-5.6 -82.32,-46.51 -75.87,-98.51 5.55,-44.68 46.79,-82.51 98.71,-75.96 44.13,5.57 82.62,46.4 75.88,98.24zm-197.3 -16c0,24.92 1.22,29.89 10.13,51.87 1.8,4.45 6.57,12.39 9.57,16.43 19.78,26.72 50.97,46.7 85.3,46.7 24.92,0 29.89,-1.22 51.87,-10.13 4.45,-1.8 12.39,-6.57 16.43,-9.57 10.05,-7.44 19.1,-16.49 26.57,-26.43 15.4,-20.48 20.13,-42.38 20.13,-68.87 0,-19.64 -8.87,-43.68 -19.7,-58.3 -7.44,-10.05 -16.49,-19.1 -26.43,-26.57 -20.48,-15.4 -42.38,-20.13 -68.87,-20.13 -34.21,0 -64.98,19.69 -84.87,46.13 -11.21,14.91 -20.13,38.64 -20.13,58.87z"/>
   <path class="fil1" d="M117.8 59.46c38.31,-4.62 68.86,24.43 72.72,58.02 4.43,38.65 -24.36,69.17 -58,73.04 -38.48,4.42 -69.18,-24.29 -73.05,-58 -4.48,-39.11 24.28,-68.95 58.33,-73.06zm94.5 76.54c6.74,-51.84 -31.75,-92.67 -75.88,-98.24 -51.92,-6.55 -93.16,31.28 -98.71,75.96 -6.45,52 31.49,92.91 75.87,98.51 52.33,6.61 92.87,-31.32 98.72,-76.23z"/>
   <path class="fil2" d="M83.21 111.36l0.34 0.23c2.99,-15.66 21.71,-30.52 41.45,-30.5 19.91,0.02 38.46,14.61 41.45,30.5l0.34 -0.23c2.83,10.2 2.69,19.95 -0.83,29.59 -2.49,6.82 -9.85,17.21 -15.22,19.04 -11.11,11.79 -40.41,11.81 -51.46,-0.01 -5.39,-1.85 -12.73,-12.18 -15.24,-19.02 -3.63,-9.9 -3.79,-19.12 -0.83,-29.6zm34.59 -51.9c-34.05,4.11 -62.81,33.95 -58.33,73.06 3.87,33.71 34.57,62.42 73.05,58 33.64,-3.87 62.43,-34.39 58,-73.04 -3.86,-33.59 -34.41,-62.64 -72.72,-58.02z"/>
   <path class="fil1" d="M83.55 111.59l-0.34 -0.23 25.68 18.53 -9.61 30.09c3.87,-1.56 8.81,-5.94 12.9,-8.81 3.87,-2.72 9.01,-7.19 12.82,-8.98 7.67,3.3 17.77,14.28 25.74,17.8l-9.75 -30.01c3.7,-2 9.23,-6.48 12.89,-9.1 4.92,-3.53 8.47,-6.36 12.91,-9.52l-0.34 0.23 -31.65 -0.27 -10.19 -29.29 -9.21 29.35 -31.85 0.21z"/>
   <path class="fil3" d="M83.55 111.59l31.85 -0.21 9.21 -29.35 10.19 29.29 31.65 0.27c-2.99,-15.89 -21.54,-30.48 -41.45,-30.5 -19.74,-0.02 -38.46,14.84 -41.45,30.5z"/>
   <path class="fil3" d="M99.28 159.98c11.05,11.82 40.35,11.8 51.46,0.01 -7.97,-3.52 -18.07,-14.5 -25.74,-17.8 -3.81,1.79 -8.95,6.26 -12.82,8.98 -4.09,2.87 -9.03,7.25 -12.9,8.81z"/>
   <path class="fil3" d="M99.28 159.98l9.61 -30.09 -25.68 -18.53c-2.96,10.48 -2.8,19.7 0.83,29.6 2.51,6.84 9.85,17.17 15.24,19.02z"/>
   <path class="fil3" d="M150.74 159.99c5.37,-1.83 12.73,-12.22 15.22,-19.04 3.52,-9.64 3.66,-19.39 0.83,-29.59 -4.44,3.16 -7.99,5.99 -12.91,9.52 -3.66,2.62 -9.19,7.1 -12.89,9.1l9.75 30.01z"/>
  </g>
 </g>
</svg>
