<?xml version="1.0" encoding="UTF-8"?>
<!DOCTYPE svg PUBLIC "-//W3C//DTD SVG 1.1//EN" "http://www.w3.org/Graphics/SVG/1.1/DTD/svg11.dtd">
<!-- Creator: CorelDRAW 2021 (64-Bit) -->
<svg xmlns="http://www.w3.org/2000/svg" xml:space="preserve" width="200px" height="200px" version="1.1" shape-rendering="geometricPrecision" text-rendering="geometricPrecision" image-rendering="optimizeQuality" fill-rule="evenodd" clip-rule="evenodd"
viewBox="0 0 200 200"
 xmlns:xlink="http://www.w3.org/1999/xlink"
 xmlns:xodm="http://www.corel.com/coreldraw/odm/2003">
 <g id="Capa_x0020_1">
  <metadata id="CorelCorpID_0Corel-Layer"/>
  <path fill="#C89B3C" d="M120.61 123.11c-20.65,5.98 -47.28,6.14 -47.28,-23.11 0,-29.25 26.63,-29.09 47.28,-23.11 10.69,20.66 10.69,25.56 0,46.22zm-115.61 -1.95l26.25 47.66c11.66,-3.93 25.49,-13.95 34.43,-7.19 13,9.82 1.19,27.06 17.9,30.97l34.99 0c18.27,-4.34 2.93,-24.51 20.14,-32.27 8.79,-3.95 22.82,5.48 32.05,8.49l23.79 -42.58c-15.36,-21.1 -22.06,-7.37 -22.3,-26.31 -0.16,-11.56 7.19,-10.81 22.75,-26.44l-24.55 -42.04c-10.39,3.69 -24.71,14.13 -34.14,7.05 -12.7,-9.55 -1.34,-27.2 -17.74,-31.1l-34.99 0c-15.8,7.95 -2.69,-5.59 -10.62,16.25 -6.79,18.74 4.68,23.4 -41.25,7.85 -8.84,13.2 -19.74,29.73 -24.66,48.01 32.85,12.29 33.35,28.76 -2.05,41.65z"/>
 </g>
</svg>
