<?xml version="1.0" encoding="UTF-8"?>
<!DOCTYPE svg PUBLIC "-//W3C//DTD SVG 1.1//EN" "http://www.w3.org/Graphics/SVG/1.1/DTD/svg11.dtd">
<!-- Creator: CorelDRAW 2021 (64-Bit) -->
<svg xmlns="http://www.w3.org/2000/svg" xml:space="preserve" width="300px" height="105px" version="1.1" style="shape-rendering:geometricPrecision; text-rendering:geometricPrecision; image-rendering:optimizeQuality; fill-rule:evenodd; clip-rule:evenodd"
viewBox="0 0 300 104.88"
 xmlns:xlink="http://www.w3.org/1999/xlink"
 xmlns:xodm="http://www.corel.com/coreldraw/odm/2003">
 <defs>
  <style type="text/css">
   <![CDATA[
    .fil1 {fill:#FFFEFE}
    .fil0 {fill:white}
   ]]>
  </style>
 </defs>
 <g id="Capa_x0020_1">
  <metadata id="CorelCorpID_0Corel-Layer"/>
  <g id="_1876811071552">
   <path class="fil0" d="M96.76 28.88c0.73,1.69 5.31,39.67 5.42,43.73l-10.45 -0.01 5.03 -43.72 0 0zm45.42 -9.48c8.91,0.49 12.64,7.55 12.51,16.95 -0.14,8.81 -4.41,16.15 -12.58,16.66l0.07 -33.61zm-35.85 85.66l35.64 0 -0.03 -29.69c0,-0.64 -0.04,-1.33 -0.02,-1.95l0.43 -2 4.15 -0.67 9.15 34.57 18.16 0.01c0.15,-3.28 -10.46,-33.69 -11.56,-40.9 2.68,-1.32 6.03,-6.02 7.82,-9.54 2.53,-5 2.78,-7.69 3.62,-13.76l10.84 64.22 21.83 -0.02 15.02 -93.4 0.03 93.36 35.59 0 0 -18.73 -16.91 -0.08c-0.34,-3.27 -0.1,-13.92 -0.1,-18.45 0,-1.53 -0.33,-4.2 0.38,-5.54l16.62 0 -0.1 -19.08 -16.8 -0.12 0.05 -23.49 16.86 -0.01 0.09 -19.05 -53.08 0 -8.79 63.01 -8.48 -63.01 -19.14 0 1.91 16.54c-2.89,-6.12 -9.46,-12.11 -16.57,-14.79 -6.81,-2.57 -21.52,-1.89 -29.59,-1.73l-0.29 91.32 -13.66 -91.34 -25.07 -0.02 -14.4 94.04 0.01 -94.02 -23.95 0 -8.7 53.55 -8.3 -53.55 -23.99 0 0 104.55c3.48,0 16.51,0.48 18.86,-0.28l0.09 -47.55c0.79,1.21 1.09,4.46 1.38,6.15 1.01,5.85 6.49,39.67 7.22,41.66 9.67,0.02 9.42,0.83 10.15,-1.26l1.81 -10.89c0.7,-4.22 1.42,-8.32 2.11,-12.57l4.3 -24.76 0.08 49.5 35.63 0c1.07,-0.66 0.42,0.59 0.92,-1.6l0.81 -6.17c0.37,-2.67 0.78,-5.43 1.1,-8.3l14.68 -0.02 2.19 15.86 0 0z"/>
   <polygon class="fil1" points="294.95,105.04 295,86.46 278.98,86.46 278.96,0.72 260.43,0.68 260.43,105.04 "/>
  </g>
 </g>
</svg>
