<?xml version="1.0" encoding="UTF-8"?>
<!DOCTYPE svg PUBLIC "-//W3C//DTD SVG 1.1//EN" "http://www.w3.org/Graphics/SVG/1.1/DTD/svg11.dtd">
<!-- Creator: CorelDRAW 2021 (64-Bit) -->
<svg xmlns="http://www.w3.org/2000/svg" xml:space="preserve" width="200px" height="200px" version="1.1" shape-rendering="geometricPrecision" text-rendering="geometricPrecision" image-rendering="optimizeQuality" fill-rule="evenodd" clip-rule="evenodd"
viewBox="0 0 200 200"
 xmlns:xlink="http://www.w3.org/1999/xlink"
 xmlns:xodm="http://www.corel.com/coreldraw/odm/2003">
 <g id="Capa_x0020_1">
  <metadata id="CorelCorpID_0Corel-Layer"/>
  <g id="_2138907224416">
   <path fill="#C89B3C" d="M40.21 145.52c-23.71,0.41 -19.1,-5.42 -20.63,16.46 15.97,9 130.9,4.42 155.38,4.42l5.46 -4.42c-1.48,-21.71 3.26,-16.06 -19.79,-16.46 0,-64.04 9.61,-84.53 -31.58,-113.84 -13.98,-9.95 -4.13,-1.93 -13.56,-13.02 -22.06,-25.95 -21.24,-9.54 -34.58,5.01 -11.93,13.01 -21.3,11.46 -32.13,29.82 -12.71,21.58 -8.57,63.11 -8.57,92.03z"/>
   <path fill="#C89B3C" d="M119.72 174.43l-38.9 0c9.14,29.66 30.07,25.1 38.9,0z"/>
  </g>
 </g>
</svg>
