<?xml version="1.0" encoding="UTF-8"?>
<!DOCTYPE svg PUBLIC "-//W3C//DTD SVG 1.1//EN" "http://www.w3.org/Graphics/SVG/1.1/DTD/svg11.dtd">
<!-- Creator: CorelDRAW 2021 (64-Bit) -->
<svg xmlns="http://www.w3.org/2000/svg" xml:space="preserve" width="1142px" height="91px" version="1.1" style="shape-rendering:geometricPrecision; text-rendering:geometricPrecision; image-rendering:optimizeQuality; fill-rule:evenodd; clip-rule:evenodd"
viewBox="0 0 1142 90.94"
 xmlns:xlink="http://www.w3.org/1999/xlink"
 xmlns:xodm="http://www.corel.com/coreldraw/odm/2003">
 <defs>
  <style type="text/css">
   <![CDATA[
    .str0 {stroke:#111111;stroke-width:3.13;stroke-miterlimit:22.9256}
    .fil2 {fill:#FEFEFE;fill-rule:nonzero}
    .fil0 {fill:#1E2328;fill-rule:nonzero}
    .fil1 {fill:url(#id0);fill-rule:nonzero}
   ]]>
  </style>
  <linearGradient id="id0" gradientUnits="userSpaceOnUse" x1="570.93" y1="76.36" x2="571.66" y2="11.1">
   <stop offset="0" style="stop-opacity:1; stop-color:#31969D"/>
   <stop offset="0.321569" style="stop-opacity:1; stop-color:#65E6F4"/>
   <stop offset="0.658824" style="stop-opacity:1; stop-color:#24AEBD"/>
   <stop offset="0.988235" style="stop-opacity:1; stop-color:#1299A8"/>
   <stop offset="1" style="stop-opacity:1; stop-color:#1299A8"/>
  </linearGradient>
 </defs>
 <g id="Capa_x0020_1">
  <metadata id="CorelCorpID_0Corel-Layer"/>
  <g id="_1903932172176">
   <g>
    <g filter="url(#filter0_ddd_501_3633)">
     <polygon class="fil0" points="15.15,0 1142,0 1128.02,90.94 0,90.94 "/>
    </g>
   </g>
   <polygon class="fil1 str0" points="510.43,75.79 523.79,15.14 631.57,15.14 618.35,75.79 "/>
   <g>
    <polygon class="fil2 str0" points="18.68,75.79 32.04,15.14 139.82,15.14 126.6,75.79 "/>
    <polygon class="fil2 str0" points="128.18,75.79 141.54,15.14 249.32,15.14 236.1,75.79 "/>
    <polygon class="fil2 str0" points="237.68,75.79 251.04,15.14 358.82,15.14 345.6,75.79 "/>
    <polygon class="fil2 str0" points="347.18,75.79 360.54,15.14 468.32,15.14 455.1,75.79 "/>
    <polygon class="fil2 str0" points="455.68,75.79 469.04,15.14 576.82,15.14 563.6,75.79 "/>
    <polygon class="fil2 str0" points="565.18,75.79 578.54,15.14 686.32,15.14 673.1,75.79 "/>
    <polygon class="fil2 str0" points="674.68,75.79 688.04,15.14 795.82,15.14 782.6,75.79 "/>
    <polygon class="fil2 str0" points="784.18,75.79 797.54,15.14 905.32,15.14 892.1,75.79 "/>
    <polygon class="fil2 str0" points="892.68,75.79 906.04,15.14 1013.82,15.14 1000.6,75.79 "/>
    <polygon class="fil2 str0" points="1002.18,75.79 1015.54,15.14 1123.32,15.14 1110.1,75.79 "/>
   </g>
  </g>
 </g>
</svg>
